<svg width="115" height="40" viewBox="0 0 115 40" fill="none" xmlns="http://www.w3.org/2000/svg">
<rect width="115" height="40" rx="20" fill="#C28005"/>
<path d="M46.5905 24.536C46.2705 24.7813 45.8652 24.952 45.3745 25.048C44.8838 25.144 44.3612 25.192 43.8065 25.192C43.1345 25.192 42.5052 25.08 41.9185 24.856C41.3318 24.6213 40.8198 24.2693 40.3825 23.8C39.9452 23.3307 39.5985 22.7333 39.3425 22.008C39.0865 21.272 38.9585 20.4027 38.9585 19.4C38.9585 18.3547 39.0972 17.4693 39.3745 16.744C39.6625 16.008 40.0358 15.4107 40.4945 14.952C40.9638 14.4827 41.4865 14.1413 42.0625 13.928C42.6385 13.7147 43.2252 13.608 43.8225 13.608C44.4625 13.608 44.9852 13.6453 45.3905 13.72C45.7958 13.784 46.1425 13.8747 46.4305 13.992L46.1105 15.16C45.5985 14.9147 44.8678 14.792 43.9185 14.792C43.4812 14.792 43.0492 14.872 42.6225 15.032C42.1958 15.192 41.8118 15.4533 41.4705 15.816C41.1398 16.1787 40.8732 16.6533 40.6705 17.24C40.4678 17.8267 40.3665 18.5467 40.3665 19.4C40.3665 20.168 40.4625 20.84 40.6545 21.416C40.8465 21.992 41.1078 22.472 41.4385 22.856C41.7798 23.24 42.1745 23.528 42.6225 23.72C43.0812 23.912 43.5772 24.008 44.1105 24.008C44.5905 24.008 45.0065 23.96 45.3585 23.864C45.7212 23.768 46.0252 23.6453 46.2705 23.496L46.5905 24.536ZM48.4351 17H49.3151L49.5551 17.96H49.6191C49.8645 17.5867 50.1791 17.304 50.5631 17.112C50.9578 16.9093 51.4058 16.808 51.9071 16.808C52.9738 16.808 53.7685 17.1227 54.2911 17.752C54.8138 18.3813 55.0751 19.4107 55.0751 20.84C55.0751 21.512 54.9845 22.12 54.8031 22.664C54.6325 23.1973 54.3871 23.6507 54.0671 24.024C53.7471 24.3973 53.3578 24.6853 52.8991 24.888C52.4511 25.0907 51.9498 25.192 51.3951 25.192C51.0005 25.192 50.6858 25.1653 50.4511 25.112C50.2271 25.0693 49.9818 24.9893 49.7151 24.872V28.2H48.4351V17ZM51.6671 17.928C51.1231 17.928 50.6911 18.072 50.3711 18.36C50.0618 18.6373 49.8431 19.064 49.7151 19.64V23.608C49.9071 23.7573 50.1258 23.8747 50.3711 23.96C50.6165 24.0347 50.9418 24.072 51.3471 24.072C52.0831 24.072 52.6645 23.8 53.0911 23.256C53.5285 22.7013 53.7471 21.8907 53.7471 20.824C53.7471 20.3867 53.7098 19.992 53.6351 19.64C53.5605 19.2773 53.4378 18.9733 53.2671 18.728C53.1071 18.472 52.8938 18.2747 52.6271 18.136C52.3711 17.9973 52.0511 17.928 51.6671 17.928ZM56.9634 17.592C57.3687 17.3467 57.838 17.1653 58.3714 17.048C58.9154 16.9307 59.4807 16.872 60.0674 16.872C60.622 16.872 61.0647 16.9467 61.3954 17.096C61.7367 17.2453 61.9927 17.4427 62.1634 17.688C62.3447 17.9227 62.462 18.184 62.5154 18.472C62.5794 18.76 62.6114 19.048 62.6114 19.336C62.6114 19.976 62.5954 20.6 62.5634 21.208C62.5314 21.816 62.5154 22.392 62.5154 22.936C62.5154 23.3307 62.5314 23.704 62.5634 24.056C62.5954 24.408 62.654 24.7333 62.7394 25.032H61.7954L61.4594 23.912H61.3794C61.2834 24.0613 61.1607 24.2107 61.0114 24.36C60.8727 24.4987 60.702 24.6267 60.4994 24.744C60.2967 24.8507 60.062 24.9413 59.7954 25.016C59.5287 25.0907 59.2247 25.128 58.8834 25.128C58.542 25.128 58.222 25.0747 57.9234 24.968C57.6354 24.8613 57.3847 24.712 57.1714 24.52C56.958 24.3173 56.7874 24.0773 56.6594 23.8C56.542 23.5227 56.4834 23.208 56.4834 22.856C56.4834 22.3867 56.5794 21.9973 56.7714 21.688C56.9634 21.368 57.23 21.1173 57.5714 20.936C57.9234 20.744 58.3394 20.6107 58.8194 20.536C59.31 20.4507 59.8487 20.408 60.4354 20.408C60.5847 20.408 60.7287 20.408 60.8674 20.408C61.0167 20.408 61.166 20.4187 61.3154 20.44C61.3474 20.12 61.3634 19.832 61.3634 19.576C61.3634 18.9893 61.246 18.5787 61.0114 18.344C60.7767 18.1093 60.35 17.992 59.7314 17.992C59.55 17.992 59.3527 18.008 59.1394 18.04C58.9367 18.0613 58.7234 18.0987 58.4994 18.152C58.286 18.1947 58.078 18.2533 57.8754 18.328C57.6834 18.392 57.5127 18.4667 57.3634 18.552L56.9634 17.592ZM59.2354 24.008C59.534 24.008 59.8007 23.9707 60.0354 23.896C60.27 23.8107 60.4727 23.7093 60.6434 23.592C60.814 23.464 60.9527 23.3253 61.0594 23.176C61.1767 23.0267 61.262 22.8827 61.3154 22.744V21.416C61.166 21.4053 61.0114 21.4 60.8514 21.4C60.702 21.3893 60.5527 21.384 60.4034 21.384C60.0727 21.384 59.7474 21.4053 59.4274 21.448C59.118 21.48 58.8407 21.5493 58.5954 21.656C58.3607 21.752 58.1687 21.8907 58.0194 22.072C57.8807 22.2427 57.8114 22.4613 57.8114 22.728C57.8114 23.1013 57.9447 23.4107 58.2114 23.656C58.478 23.8907 58.8194 24.008 59.2354 24.008ZM65.0289 17.016C65.4022 16.9947 65.7915 16.968 66.1969 16.936C66.6129 16.904 67.1249 16.888 67.7329 16.888C68.7889 16.888 69.5462 17.0533 70.0049 17.384C70.4635 17.704 70.6929 18.1947 70.6929 18.856C70.6929 19.2293 70.5809 19.5973 70.3569 19.96C70.1435 20.312 69.7862 20.5733 69.2849 20.744V20.808C69.9142 20.9253 70.3569 21.144 70.6129 21.464C70.8689 21.784 70.9969 22.2107 70.9969 22.744C70.9969 23.576 70.6982 24.1787 70.1009 24.552C69.5035 24.9253 68.6075 25.112 67.4129 25.112C66.9649 25.112 66.5489 25.096 66.1649 25.064C65.7809 25.0427 65.4022 25.016 65.0289 24.984V17.016ZM66.3089 23.928C66.5115 23.9493 66.7089 23.9653 66.9009 23.976C67.1035 23.9867 67.3382 23.992 67.6049 23.992C68.3195 23.992 68.8475 23.8907 69.1889 23.688C69.5409 23.4853 69.7169 23.1387 69.7169 22.648C69.7169 22.264 69.5675 21.9547 69.2689 21.72C68.9809 21.4747 68.4635 21.352 67.7169 21.352H66.3089V23.928ZM67.8769 20.376C68.0689 20.376 68.2555 20.344 68.4369 20.28C68.6182 20.216 68.7782 20.1307 68.9169 20.024C69.0662 19.9067 69.1835 19.7733 69.2689 19.624C69.3649 19.4747 69.4129 19.3147 69.4129 19.144C69.4129 18.7173 69.2849 18.424 69.0289 18.264C68.7729 18.0933 68.3249 18.008 67.6849 18.008C67.3435 18.008 67.0715 18.0133 66.8689 18.024C66.6769 18.0347 66.4902 18.0453 66.3089 18.056V20.376H67.8769ZM77.9093 21.464H74.2933V25H73.0133V17H74.2933V20.344H77.9093V17H79.1893V25H77.9093V21.464ZM86.6459 20.264L86.6939 19.272H86.6459L85.9899 20.296L82.3899 25H81.6539V17H82.9339V21.88L82.8859 22.824H82.9499L83.5739 21.832L87.1739 17H87.9259V25H86.6459V20.264ZM95.4763 18.12H92.9803V25H91.7003V18.12H89.2043V17H95.4763V18.12ZM98.0276 23.88C98.4223 23.944 98.801 23.976 99.1636 23.976C99.8356 23.976 100.332 23.848 100.652 23.592C100.972 23.3253 101.132 22.952 101.132 22.472C101.132 22.0453 100.977 21.6933 100.668 21.416C100.358 21.1387 99.873 21 99.2116 21C99.0303 21 98.833 21.0053 98.6196 21.016C98.4063 21.0267 98.209 21.0587 98.0276 21.112V23.88ZM98.0276 20.056C98.2836 20.0133 98.529 19.9867 98.7636 19.976C98.9983 19.9547 99.2223 19.944 99.4356 19.944C99.9903 19.944 100.46 20.008 100.844 20.136C101.228 20.2533 101.537 20.4187 101.772 20.632C102.017 20.8453 102.193 21.1013 102.3 21.4C102.406 21.688 102.46 21.9973 102.46 22.328C102.46 23.2987 102.166 24.0027 101.58 24.44C101.004 24.8773 100.102 25.096 98.8756 25.096C98.193 25.096 97.4836 25.064 96.7476 25V17H98.0276V20.056Z" fill="white"/>
<path d="M16.2789 18.4797C16.1837 18.5195 16.1215 18.6122 16.1215 18.7151L16.1215 21.5058L9.75468 21.5058C9.6141 21.5058 9.5 21.6199 9.5 21.7604L9.5 25.8352C9.5 25.9758 9.6141 26.0899 9.75468 26.0899L16.1215 26.0899L16.1215 28.8913C16.1215 28.9942 16.1837 29.0869 16.2784 29.1266C16.3737 29.1659 16.4832 29.1445 16.556 29.0716L21.6536 23.9909C21.7014 23.943 21.7284 23.8783 21.7284 23.8106C21.7284 23.7428 21.7014 23.6781 21.6541 23.6303L16.5565 18.5347C16.4837 18.4619 16.3742 18.44 16.2789 18.4797Z" stroke="white" stroke-width="1.1"/>
<path d="M23.7211 11.0196C23.8163 11.0593 23.8785 11.152 23.8785 11.2549L23.8785 14.0456L30.2453 14.0456C30.3859 14.0456 30.5 14.1597 30.5 14.3003L30.5 18.3751C30.5 18.5157 30.3859 18.6298 30.2453 18.6298L23.8785 18.6298L23.8785 21.4312C23.8785 21.5341 23.8163 21.6268 23.7216 21.6665C23.6263 21.7057 23.5168 21.6843 23.444 21.6115L18.3464 16.5307C18.2986 16.4829 18.2715 16.4182 18.2715 16.3504C18.2715 16.2827 18.2986 16.218 18.3459 16.1701L23.4435 11.0746C23.5163 11.0018 23.6258 10.9799 23.7211 11.0196Z" stroke="white" stroke-width="1.1"/>
<path d="M16.2789 18.4797C16.1837 18.5195 16.1215 18.6122 16.1215 18.7151L16.1215 21.5058L9.75468 21.5058C9.6141 21.5058 9.5 21.6199 9.5 21.7604L9.5 25.8352C9.5 25.9758 9.6141 26.0899 9.75468 26.0899L16.1215 26.0899L16.1215 28.8913C16.1215 28.9942 16.1837 29.0869 16.2784 29.1266C16.3737 29.1659 16.4832 29.1445 16.556 29.0716L21.6536 23.9909C21.7014 23.943 21.7284 23.8783 21.7284 23.8106C21.7284 23.7428 21.7014 23.6781 21.6541 23.6303L16.5565 18.5347C16.4837 18.4619 16.3742 18.44 16.2789 18.4797Z" stroke="white" stroke-width="1.1"/>
<path d="M23.7211 11.0196C23.8163 11.0593 23.8785 11.152 23.8785 11.2549L23.8785 14.0456L30.2453 14.0456C30.3859 14.0456 30.5 14.1597 30.5 14.3003L30.5 18.3751C30.5 18.5157 30.3859 18.6298 30.2453 18.6298L23.8785 18.6298L23.8785 21.4312C23.8785 21.5341 23.8163 21.6268 23.7216 21.6665C23.6263 21.7057 23.5168 21.6843 23.444 21.6115L18.3464 16.5307C18.2986 16.4829 18.2715 16.4182 18.2715 16.3504C18.2715 16.2827 18.2986 16.218 18.3459 16.1701L23.4435 11.0746C23.5163 11.0018 23.6258 10.9799 23.7211 11.0196Z" stroke="white" stroke-width="1.1"/>
</svg>
