<svg width="23" height="20" viewBox="0 0 23 20" fill="none" xmlns="http://www.w3.org/2000/svg">
<path fill-rule="evenodd" clip-rule="evenodd" d="M14.9812 0.0705596C14.789 0.158739 9.47196 5.42125 9.29673 5.69672C9.1746 5.88867 9.1466 6.15145 9.2256 6.36431C9.28043 6.51203 14.7369 11.9821 14.9298 12.0827C15.249 12.2492 15.6657 12.1382 15.8676 11.833L15.9772 11.6673L15.9887 10.3189L16.0002 8.97061L19.1961 8.95993C22.8271 8.94784 22.5909 8.9703 22.8158 8.6153L22.9299 8.43511V6.08792C22.9299 4.11626 22.9207 3.72278 22.8722 3.62894C22.7883 3.4665 22.5565 3.27674 22.3832 3.22856C22.2841 3.20104 21.1676 3.18664 19.1149 3.18652L15.9972 3.18628L15.9963 1.90008C15.9955 0.734919 15.9885 0.59888 15.9219 0.454347C15.8329 0.261277 15.7067 0.139755 15.5098 0.0574382C15.3178 -0.0228847 15.1772 -0.019375 14.9812 0.0705596ZM18.5277 4.14346H22.0135V6.07775V8.01204H18.5272H15.0409V9.47768V10.9433L12.6205 8.52054L10.2001 6.09777L12.6105 3.68469L15.021 1.27165L15.0314 2.70754L15.0419 4.14346H18.5277ZM7.33121 7.91892C7.14661 8.01655 7.06732 8.09791 6.98779 8.27128C6.92157 8.41561 6.91452 8.55512 6.91373 9.73695L6.91285 11.0431H3.72377C0.618252 11.0431 0.530636 11.0452 0.379231 11.1225C0.293726 11.1662 0.173399 11.268 0.111881 11.3487L0 11.4955V13.9178V16.34L0.120527 16.4891C0.377637 16.8071 0.124431 16.7861 3.71477 16.7861H6.91285L6.91373 18.0923C6.91452 19.2732 6.92161 19.4139 6.98775 19.5596C7.16279 19.9454 7.61214 20.1101 7.97647 19.9222C8.13879 19.8384 13.5675 14.4283 13.6483 14.2698C13.7336 14.1025 13.7497 13.8236 13.6842 13.648C13.6309 13.5052 8.13262 7.99286 7.96304 7.91234C7.80032 7.83505 7.48357 7.83836 7.33121 7.91892ZM10.2895 16.3374L7.86909 18.7602V17.3148V15.8693L4.39275 15.8591L0.916401 15.8489V13.9146V11.9803L4.39275 11.9702L7.86909 11.96V10.5145V9.06901L10.2895 11.4918L12.71 13.9146L10.2895 16.3374Z" fill="#071A33"/>
</svg>
