<svg width="141" height="40" viewBox="0 0 141 40" fill="none" xmlns="http://www.w3.org/2000/svg">
<rect width="141" height="40" rx="20" fill="#C28005"/>
<path d="M46.112 16.36C46.112 16.6267 46.0693 16.8987 45.984 17.176C45.8987 17.4533 45.7707 17.7147 45.6 17.96C45.4293 18.1947 45.2107 18.4027 44.944 18.584C44.6773 18.7653 44.3627 18.904 44 19V19.064C44.32 19.1173 44.624 19.208 44.912 19.336C45.2107 19.464 45.472 19.64 45.696 19.864C45.92 20.088 46.1013 20.36 46.24 20.68C46.3787 21 46.448 21.3787 46.448 21.816C46.448 22.392 46.3253 22.8933 46.08 23.32C45.8453 23.736 45.5307 24.0773 45.136 24.344C44.752 24.6107 44.3093 24.808 43.808 24.936C43.3067 25.064 42.7947 25.128 42.272 25.128C42.0907 25.128 41.8773 25.128 41.632 25.128C41.3867 25.128 41.1307 25.1173 40.864 25.096C40.5973 25.0853 40.3307 25.064 40.064 25.032C39.7973 25.0107 39.5627 24.9733 39.36 24.92V13.896C39.7547 13.832 40.2133 13.7787 40.736 13.736C41.2587 13.6933 41.8293 13.672 42.448 13.672C42.864 13.672 43.2853 13.7093 43.712 13.784C44.1493 13.848 44.544 13.9813 44.896 14.184C45.248 14.376 45.536 14.648 45.76 15C45.9947 15.352 46.112 15.8053 46.112 16.36ZM42.4 23.976C42.7413 23.976 43.072 23.9387 43.392 23.864C43.712 23.7787 43.9947 23.6507 44.24 23.48C44.4853 23.2987 44.6773 23.08 44.816 22.824C44.9653 22.568 45.04 22.264 45.04 21.912C45.04 21.4747 44.9493 21.1227 44.768 20.856C44.5973 20.5893 44.368 20.3813 44.08 20.232C43.8027 20.0827 43.488 19.9813 43.136 19.928C42.784 19.8747 42.432 19.848 42.08 19.848H40.688V23.864C40.7627 23.8853 40.8693 23.9013 41.008 23.912C41.1467 23.9227 41.296 23.9333 41.456 23.944C41.616 23.9547 41.7813 23.9653 41.952 23.976C42.1227 23.976 42.272 23.976 42.4 23.976ZM41.52 18.728C41.7013 18.728 41.92 18.7227 42.176 18.712C42.432 18.7013 42.6453 18.6853 42.816 18.664C43.072 18.5787 43.312 18.4773 43.536 18.36C43.76 18.232 43.9573 18.088 44.128 17.928C44.3093 17.7573 44.448 17.5653 44.544 17.352C44.6507 17.128 44.704 16.888 44.704 16.632C44.704 16.28 44.6347 15.992 44.496 15.768C44.368 15.5333 44.192 15.3467 43.968 15.208C43.744 15.0693 43.488 14.9733 43.2 14.92C42.912 14.856 42.6187 14.824 42.32 14.824C41.968 14.824 41.6427 14.8347 41.344 14.856C41.056 14.8667 40.8373 14.888 40.688 14.92V18.728H41.52ZM57.8334 20.264L57.8814 19.272H57.8334L57.1774 20.296L53.5774 25H52.8414V17H54.1214V21.88L54.0734 22.824H54.1374L54.7614 21.832L58.3614 17H59.1134V25H57.8334V20.264ZM62.3438 21.432V20.392H63.4638C63.6558 20.392 63.8424 20.36 64.0238 20.296C64.2158 20.232 64.3864 20.1467 64.5358 20.04C64.6851 19.9227 64.8024 19.7893 64.8878 19.64C64.9838 19.48 65.0318 19.3147 65.0318 19.144C65.0318 18.728 64.8878 18.4347 64.5998 18.264C64.3118 18.0933 63.8798 18.008 63.3038 18.008C62.8878 18.008 62.5038 18.072 62.1518 18.2C61.8104 18.328 61.5438 18.4507 61.3518 18.568L60.9838 17.576C61.3038 17.3947 61.6771 17.2347 62.1038 17.096C62.5411 16.9573 63.0584 16.888 63.6558 16.888C65.4264 16.888 66.3118 17.544 66.3118 18.856C66.3118 19.2293 66.1891 19.5973 65.9438 19.96C65.7091 20.312 65.3678 20.5627 64.9198 20.712V20.776C65.5491 20.8933 65.9864 21.1173 66.2318 21.448C66.4878 21.7787 66.6158 22.216 66.6158 22.76C66.6158 23.1013 66.5464 23.416 66.4078 23.704C66.2691 23.992 66.0611 24.2427 65.7838 24.456C65.5064 24.6693 65.1544 24.84 64.7278 24.968C64.3118 25.0853 63.8264 25.144 63.2718 25.144C62.7278 25.144 62.2744 25.096 61.9118 25C61.5598 24.904 61.2398 24.7867 60.9518 24.648L61.3198 23.592C61.5651 23.7307 61.8584 23.8373 62.1998 23.912C62.5518 23.9867 62.9304 24.024 63.3358 24.024C63.9864 24.024 64.4824 23.912 64.8238 23.688C65.1651 23.464 65.3358 23.1227 65.3358 22.664C65.3358 22.28 65.1758 21.9813 64.8558 21.768C64.5358 21.544 64.0078 21.432 63.2718 21.432H62.3438ZM69.3743 18.424C69.7263 17.912 70.1156 17.5547 70.5423 17.352C70.9689 17.1387 71.5023 17.032 72.1423 17.032C73.1236 17.032 73.8756 17.352 74.3983 17.992C74.9316 18.632 75.1983 19.576 75.1983 20.824C75.1983 22.264 74.8889 23.352 74.2703 24.088C73.6623 24.824 72.8089 25.192 71.7103 25.192C70.5369 25.192 69.6569 24.7867 69.0703 23.976C68.4836 23.1653 68.1903 21.8907 68.1903 20.152C68.1903 19.2347 68.2329 18.4507 68.3183 17.8C68.4143 17.1493 68.5476 16.6 68.7183 16.152C68.8996 15.704 69.1129 15.3467 69.3583 15.08C69.6143 14.8133 69.8969 14.6053 70.2063 14.456C70.5263 14.296 70.8729 14.184 71.2463 14.12C71.6196 14.056 72.0196 14.0027 72.4463 13.96C73.0009 13.9067 73.4329 13.848 73.7423 13.784C74.0623 13.7093 74.3183 13.5813 74.5103 13.4L74.6543 14.552C74.5476 14.648 74.4303 14.728 74.3023 14.792C74.1743 14.856 74.0196 14.9093 73.8383 14.952C73.6569 14.9947 73.4383 15.032 73.1823 15.064C72.9369 15.096 72.6489 15.1227 72.3183 15.144C71.8596 15.176 71.4543 15.2347 71.1023 15.32C70.7609 15.3947 70.4623 15.5493 70.2063 15.784C69.9609 16.008 69.7636 16.3333 69.6143 16.76C69.4756 17.176 69.3796 17.7307 69.3263 18.424H69.3743ZM69.5182 21.016C69.5182 21.4213 69.5609 21.8107 69.6463 22.184C69.7316 22.5573 69.8596 22.888 70.0303 23.176C70.2116 23.4533 70.4409 23.672 70.7183 23.832C70.9956 23.992 71.3209 24.072 71.6943 24.072C72.4303 24.072 72.9743 23.8107 73.3263 23.288C73.6889 22.7547 73.8703 21.9707 73.8703 20.936C73.8703 20.5307 73.8329 20.1573 73.7583 19.816C73.6836 19.4747 73.5663 19.1813 73.4063 18.936C73.2463 18.68 73.0436 18.488 72.7983 18.36C72.5529 18.2213 72.2596 18.152 71.9183 18.152C71.0863 18.1413 70.4783 18.3867 70.0943 18.888C69.7103 19.3787 69.5182 20.088 69.5182 21.016ZM77.2164 17H78.0964L78.3364 17.96H78.4004C78.6457 17.5867 78.9604 17.304 79.3444 17.112C79.739 16.9093 80.187 16.808 80.6884 16.808C81.755 16.808 82.5497 17.1227 83.0724 17.752C83.595 18.3813 83.8564 19.4107 83.8564 20.84C83.8564 21.512 83.7657 22.12 83.5844 22.664C83.4137 23.1973 83.1684 23.6507 82.8484 24.024C82.5284 24.3973 82.139 24.6853 81.6804 24.888C81.2324 25.0907 80.731 25.192 80.1764 25.192C79.7817 25.192 79.467 25.1653 79.2324 25.112C79.0084 25.0693 78.763 24.9893 78.4964 24.872V28.2H77.2164V17ZM80.4484 17.928C79.9044 17.928 79.4724 18.072 79.1524 18.36C78.843 18.6373 78.6244 19.064 78.4964 19.64V23.608C78.6884 23.7573 78.907 23.8747 79.1524 23.96C79.3977 24.0347 79.723 24.072 80.1284 24.072C80.8644 24.072 81.4457 23.8 81.8724 23.256C82.3097 22.7013 82.5284 21.8907 82.5284 20.824C82.5284 20.3867 82.491 19.992 82.4164 19.64C82.3417 19.2773 82.219 18.9733 82.0484 18.728C81.8884 18.472 81.675 18.2747 81.4084 18.136C81.1524 17.9973 80.8324 17.928 80.4484 17.928ZM85.7446 17.592C86.15 17.3467 86.6193 17.1653 87.1526 17.048C87.6966 16.9307 88.262 16.872 88.8486 16.872C89.4033 16.872 89.846 16.9467 90.1766 17.096C90.518 17.2453 90.774 17.4427 90.9446 17.688C91.126 17.9227 91.2433 18.184 91.2966 18.472C91.3606 18.76 91.3926 19.048 91.3926 19.336C91.3926 19.976 91.3766 20.6 91.3446 21.208C91.3126 21.816 91.2966 22.392 91.2966 22.936C91.2966 23.3307 91.3126 23.704 91.3446 24.056C91.3766 24.408 91.4353 24.7333 91.5206 25.032H90.5766L90.2406 23.912H90.1606C90.0646 24.0613 89.942 24.2107 89.7926 24.36C89.654 24.4987 89.4833 24.6267 89.2806 24.744C89.078 24.8507 88.8433 24.9413 88.5766 25.016C88.31 25.0907 88.006 25.128 87.6646 25.128C87.3233 25.128 87.0033 25.0747 86.7046 24.968C86.4166 24.8613 86.166 24.712 85.9526 24.52C85.7393 24.3173 85.5686 24.0773 85.4406 23.8C85.3233 23.5227 85.2646 23.208 85.2646 22.856C85.2646 22.3867 85.3606 21.9973 85.5526 21.688C85.7446 21.368 86.0113 21.1173 86.3526 20.936C86.7046 20.744 87.1206 20.6107 87.6006 20.536C88.0913 20.4507 88.63 20.408 89.2166 20.408C89.366 20.408 89.51 20.408 89.6486 20.408C89.798 20.408 89.9473 20.4187 90.0966 20.44C90.1286 20.12 90.1446 19.832 90.1446 19.576C90.1446 18.9893 90.0273 18.5787 89.7926 18.344C89.558 18.1093 89.1313 17.992 88.5126 17.992C88.3313 17.992 88.134 18.008 87.9206 18.04C87.718 18.0613 87.5046 18.0987 87.2806 18.152C87.0673 18.1947 86.8593 18.2533 86.6566 18.328C86.4646 18.392 86.294 18.4667 86.1446 18.552L85.7446 17.592ZM88.0166 24.008C88.3153 24.008 88.582 23.9707 88.8166 23.896C89.0513 23.8107 89.254 23.7093 89.4246 23.592C89.5953 23.464 89.734 23.3253 89.8406 23.176C89.958 23.0267 90.0433 22.8827 90.0966 22.744V21.416C89.9473 21.4053 89.7926 21.4 89.6326 21.4C89.4833 21.3893 89.334 21.384 89.1846 21.384C88.854 21.384 88.5286 21.4053 88.2086 21.448C87.8993 21.48 87.622 21.5493 87.3766 21.656C87.142 21.752 86.95 21.8907 86.8006 22.072C86.662 22.2427 86.5926 22.4613 86.5926 22.728C86.5926 23.1013 86.726 23.4107 86.9926 23.656C87.2593 23.8907 87.6006 24.008 88.0166 24.008ZM98.7061 21.464H95.0901V25H93.8101V17H95.0901V20.344H98.7061V17H99.9861V25H98.7061V21.464ZM107.347 21.464H103.731V25H102.451V17H103.731V20.344H107.347V17H108.627V25H107.347V21.464ZM110.643 21C110.643 19.6453 110.942 18.6107 111.539 17.896C112.147 17.1707 113.017 16.808 114.147 16.808C114.745 16.808 115.262 16.9093 115.699 17.112C116.147 17.304 116.515 17.5867 116.803 17.96C117.091 18.3227 117.305 18.7653 117.443 19.288C117.582 19.8 117.651 20.3707 117.651 21C117.651 22.3547 117.347 23.3947 116.739 24.12C116.142 24.8347 115.278 25.192 114.147 25.192C113.55 25.192 113.027 25.096 112.579 24.904C112.142 24.7013 111.779 24.4187 111.491 24.056C111.203 23.6827 110.99 23.24 110.851 22.728C110.713 22.2053 110.643 21.6293 110.643 21ZM111.971 21C111.971 21.4053 112.009 21.7947 112.083 22.168C112.169 22.5413 112.297 22.8667 112.467 23.144C112.638 23.4213 112.862 23.6453 113.139 23.816C113.417 23.9867 113.753 24.072 114.147 24.072C115.598 24.0827 116.323 23.0587 116.323 21C116.323 20.584 116.281 20.1893 116.195 19.816C116.121 19.4427 115.998 19.1173 115.827 18.84C115.657 18.5627 115.433 18.344 115.155 18.184C114.878 18.0133 114.542 17.928 114.147 17.928C112.697 17.9173 111.971 18.9413 111.971 21ZM125.51 24.36C125.19 24.616 124.784 24.8187 124.294 24.968C123.814 25.1173 123.302 25.192 122.758 25.192C122.15 25.192 121.622 25.096 121.174 24.904C120.726 24.7013 120.358 24.4187 120.07 24.056C119.782 23.6827 119.568 23.24 119.43 22.728C119.291 22.216 119.222 21.64 119.222 21C119.222 19.6347 119.526 18.5947 120.134 17.88C120.742 17.1653 121.611 16.808 122.742 16.808C123.104 16.808 123.467 16.8507 123.83 16.936C124.192 17.0107 124.518 17.16 124.806 17.384C125.094 17.608 125.328 17.928 125.51 18.344C125.691 18.7493 125.782 19.288 125.782 19.96C125.782 20.312 125.75 20.7013 125.686 21.128H120.549C120.549 21.5973 120.598 22.0133 120.694 22.376C120.79 22.7387 120.939 23.048 121.142 23.304C121.344 23.5493 121.606 23.7413 121.926 23.88C122.256 24.008 122.656 24.072 123.126 24.072C123.488 24.072 123.851 24.008 124.214 23.88C124.576 23.752 124.848 23.6027 125.03 23.432L125.51 24.36ZM122.758 17.928C122.128 17.928 121.622 18.0933 121.238 18.424C120.864 18.7547 120.64 19.32 120.566 20.12H124.534C124.534 19.3093 124.379 18.744 124.07 18.424C123.76 18.0933 123.323 17.928 122.758 17.928Z" fill="white"/>
<path fill-rule="evenodd" clip-rule="evenodd" d="M18.9855 16.6326L17.9323 15.5942C17.4678 15.1363 16.9669 14.7173 16.4705 14.4203C15.9649 14.1178 15.5614 14 15.2633 14C14.2916 14 13.3216 14.361 12.5943 15.0781C11.1407 16.5114 11.1352 18.8635 12.5779 20.3037L18.9881 26.2124L25.433 20.3024C26.1472 19.5887 26.5 18.6502 26.5 17.7181C26.5 16.7785 26.1414 15.8322 25.4154 15.1164L25.404 15.1052L25.3929 15.0937C24.8212 14.5055 24.0657 14.2294 23.2504 14.2294C22.1299 14.2294 20.9333 14.7121 20.0386 15.5942L18.9855 16.6326ZM26.4685 21.388L18.9855 28.25L11.5412 21.388C9.48627 19.362 9.48627 16.0361 11.5412 14.01C12.5687 12.997 13.9257 12.5 15.2633 12.5C16.601 12.5 17.958 13.513 18.9855 14.5261C20.1486 13.3792 21.7189 12.7294 23.2504 12.7294C24.4136 12.7294 25.5767 13.1308 26.4685 14.0482C27.496 15.0613 28 16.3993 28 17.7181C28 19.037 27.496 20.375 26.4685 21.388Z" fill="white" stroke="#C28005" stroke-width="0.3"/>
<path fill-rule="evenodd" clip-rule="evenodd" d="M18.9855 16.6326L17.9323 15.5942C17.4678 15.1363 16.9669 14.7173 16.4705 14.4203C15.9649 14.1178 15.5614 14 15.2633 14C14.2916 14 13.3216 14.361 12.5943 15.0781C11.1407 16.5114 11.1352 18.8635 12.5779 20.3037L18.9881 26.2124L25.433 20.3024C26.1472 19.5887 26.5 18.6502 26.5 17.7181C26.5 16.7785 26.1414 15.8322 25.4154 15.1164L25.404 15.1052L25.3929 15.0937C24.8212 14.5055 24.0657 14.2294 23.2504 14.2294C22.1299 14.2294 20.9333 14.7121 20.0386 15.5942L18.9855 16.6326ZM26.4685 21.388L18.9855 28.25L11.5412 21.388C9.48627 19.362 9.48627 16.0361 11.5412 14.01C12.5687 12.997 13.9257 12.5 15.2633 12.5C16.601 12.5 17.958 13.513 18.9855 14.5261C20.1486 13.3792 21.7189 12.7294 23.2504 12.7294C24.4136 12.7294 25.5767 13.1308 26.4685 14.0482C27.496 15.0613 28 16.3993 28 17.7181C28 19.037 27.496 20.375 26.4685 21.388Z" fill="white" stroke="white" stroke-width="0.3"/>
</svg>
